<?xml version="1.0" standalone="no"?>
<!DOCTYPE svg PUBLIC "-//W3C//DTD SVG 20010904//EN"
 "http://www.w3.org/TR/2001/REC-SVG-20010904/DTD/svg10.dtd">
<svg version="1.0" xmlns="http://www.w3.org/2000/svg"
 width="30.000000pt" height="30.000000pt" viewBox="0 0 30.000000 30.000000"
 preserveAspectRatio="xMidYMid meet">

<g transform="translate(0.000000,30.000000) scale(0.100000,-0.100000)"
fill="#000000" stroke="none">
<path d="M140 292 c-37 -12 -60 -45 -60 -88 0 -24 5 -46 10 -49 6 -3 8 -16 5
-28 -3 -12 3 -39 13 -59 l19 -37 -25 17 c-24 16 -25 16 -14 -5 9 -16 9 -22 -1
-26 -8 -3 -6 -7 6 -12 22 -9 87 3 87 16 0 6 5 7 11 4 7 -5 10 11 8 47 -1 29 3
66 9 81 30 72 -12 157 -68 139z m0 -41 c0 -11 5 -23 10 -26 6 -4 10 5 10 20 0
35 24 28 28 -8 3 -25 0 -27 -32 -27 -33 0 -36 2 -36 30 0 17 5 30 10 30 6 0
10 -9 10 -19z m30 -72 c0 -5 -4 -9 -10 -9 -5 0 -10 7 -10 16 0 8 5 12 10 9 6
-3 10 -10 10 -16z m-30 -15 c0 -14 -3 -14 -15 -4 -8 7 -15 14 -15 16 0 2 7 4
15 4 8 0 15 -7 15 -16z"/>
</g>
</svg>
